<svg xmlns="http://www.w3.org/2000/svg" viewBox="0 0 232 187">
  <g fill="#0d78bf">
    <g transform="translate(-8.320585, 180.711715)">
      <path d="M 92.765625 2.4375 C 77.128906 2.4375 63.347656 -0.8125 51.421875 -7.3125 C 39.503906 -13.8125 30.175781 -23.582031 23.4375 -36.625 C 16.707031 -49.664062 13.34375 -65.742188 13.34375 -84.859375 C 13.34375 -103.984375 16.707031 -120.066406 23.4375 -133.109375 C 30.175781 -146.148438 39.503906 -155.921875 51.421875 -162.421875 C 63.347656 -168.921875 77.128906 -172.171875 92.765625 -172.171875 C 109.085938 -172.171875 122.957031 -168.976562 134.375 -162.59375 C 145.789062 -156.207031 153.9375 -146.472656 158.8125 -133.390625 L 134.328125 -118.421875 L 131.421875 -118.53125 C 127.785156 -127.351562 122.847656 -133.679688 116.609375 -137.515625 C 110.378906 -141.347656 102.429688 -143.265625 92.765625 -143.265625 C 78.671875 -143.265625 67.675781 -138.597656 59.78125 -129.265625 C 51.894531 -119.941406 47.953125 -105.140625 47.953125 -84.859375 C 47.953125 -64.660156 51.894531 -49.898438 59.78125 -40.578125 C 67.675781 -31.253906 78.671875 -26.59375 92.765625 -26.59375 C 114.816406 -26.59375 128.320312 -37.3125 133.28125 -58.75 L 136.1875 -58.75 L 160.90625 -45.859375 C 156.257812 -29.753906 148.328125 -17.675781 137.109375 -9.625 C 125.890625 -1.582031 111.109375 2.4375 92.765625 2.4375 Z M 92.765625 2.4375 "/>
    </g>
    <g transform="translate(158.160426, 180.711715)">
      <path d="M 53.171875 2.4375 C 41.640625 2.4375 32.832031 -0.675781 26.75 -6.90625 C 20.675781 -13.132812 17.640625 -22.597656 17.640625 -35.296875 L 17.640625 -179.484375 L 49.8125 -179.484375 L 49.8125 -36.578125 C 49.8125 -28.753906 53.0625 -24.84375 59.5625 -24.84375 C 61.414062 -24.84375 63.390625 -25.148438 65.484375 -25.765625 L 67.109375 -25.3125 L 70 -0.578125 C 68.226562 0.347656 65.867188 1.082031 62.921875 1.625 C 59.984375 2.164062 56.734375 2.4375 53.171875 2.4375 Z M 53.171875 2.4375 "/>
    </g>
  </g>
</svg>
