<svg xmlns="http://www.w3.org/2000/svg" xmlns:xlink="http://www.w3.org/1999/xlink" width="1000" zoomAndPan="magnify" viewBox="0 0 750 187.499995" height="250" preserveAspectRatio="xMidYMid meet" version="1.0"><defs><g/><clipPath id="70dad32edc"><path d="M 0.996094 0 L 749 0 L 749 187 L 0.996094 187 Z M 0.996094 0 " clip-rule="nonzero"/></clipPath><clipPath id="178df4cab1"><path d="M 0.996094 0 L 232 0 L 232 187 L 0.996094 187 Z M 0.996094 0 " clip-rule="nonzero"/></clipPath><clipPath id="efd548c8f9"><rect x="0" width="232" y="0" height="187"/></clipPath><clipPath id="ae02748cc9"><rect x="0" width="454" y="0" height="52"/></clipPath><clipPath id="6d433a5b72"><path d="M 320.972656 38.984375 L 328.453125 38.984375 L 328.453125 46.464844 L 320.972656 46.464844 Z M 320.972656 38.984375 " clip-rule="nonzero"/></clipPath><clipPath id="10cc5fbdd9"><path d="M 474.96875 38.984375 L 482.449219 38.984375 L 482.449219 46.464844 L 474.96875 46.464844 Z M 474.96875 38.984375 " clip-rule="nonzero"/></clipPath><clipPath id="33ddd00472"><path d="M 615.273438 38.984375 L 622.753906 38.984375 L 622.753906 46.464844 L 615.273438 46.464844 Z M 615.273438 38.984375 " clip-rule="nonzero"/></clipPath></defs><g clip-path="url(#70dad32edc)"><path fill="#ffffff" d="M 0.996094 0 L 749.003906 0 L 749.003906 187 L 0.996094 187 Z M 0.996094 0 " fill-opacity="1" fill-rule="nonzero"/><path fill="#ffffff" d="M 0.996094 0 L 749.003906 0 L 749.003906 187 L 0.996094 187 Z M 0.996094 0 " fill-opacity="1" fill-rule="nonzero"/></g><g clip-path="url(#178df4cab1)"><g transform="matrix(1, 0, 0, 1, 0.000000000000000111, 0)"><g clip-path="url(#efd548c8f9)"><g fill="#007cc3" fill-opacity="1"><g transform="translate(-8.320585, 180.711715)"><g><path d="M 92.765625 2.4375 C 77.128906 2.4375 63.347656 -0.8125 51.421875 -7.3125 C 39.503906 -13.8125 30.175781 -23.582031 23.4375 -36.625 C 16.707031 -49.664062 13.34375 -65.742188 13.34375 -84.859375 C 13.34375 -103.984375 16.707031 -120.066406 23.4375 -133.109375 C 30.175781 -146.148438 39.503906 -155.921875 51.421875 -162.421875 C 63.347656 -168.921875 77.128906 -172.171875 92.765625 -172.171875 C 109.085938 -172.171875 122.957031 -168.976562 134.375 -162.59375 C 145.789062 -156.207031 153.9375 -146.472656 158.8125 -133.390625 L 134.328125 -118.421875 L 131.421875 -118.53125 C 127.785156 -127.351562 122.847656 -133.679688 116.609375 -137.515625 C 110.378906 -141.347656 102.429688 -143.265625 92.765625 -143.265625 C 78.671875 -143.265625 67.675781 -138.597656 59.78125 -129.265625 C 51.894531 -119.941406 47.953125 -105.140625 47.953125 -84.859375 C 47.953125 -64.660156 51.894531 -49.898438 59.78125 -40.578125 C 67.675781 -31.253906 78.671875 -26.59375 92.765625 -26.59375 C 114.816406 -26.59375 128.320312 -37.3125 133.28125 -58.75 L 136.1875 -58.75 L 160.90625 -45.859375 C 156.257812 -29.753906 148.328125 -17.675781 137.109375 -9.625 C 125.890625 -1.582031 111.109375 2.4375 92.765625 2.4375 Z M 92.765625 2.4375 "/></g></g><g transform="translate(158.160426, 180.711715)"><g><path d="M 53.171875 2.4375 C 41.640625 2.4375 32.832031 -0.675781 26.75 -6.90625 C 20.675781 -13.132812 17.640625 -22.597656 17.640625 -35.296875 L 17.640625 -179.484375 L 49.8125 -179.484375 L 49.8125 -36.578125 C 49.8125 -28.753906 53.0625 -24.84375 59.5625 -24.84375 C 61.414062 -24.84375 63.390625 -25.148438 65.484375 -25.765625 L 67.109375 -25.3125 L 70 -0.578125 C 68.226562 0.347656 65.867188 1.082031 62.921875 1.625 C 59.984375 2.164062 56.734375 2.4375 53.171875 2.4375 Z M 53.171875 2.4375 "/></g></g></g></g></g></g><g fill="#000000" fill-opacity="1"><g transform="translate(224.311781, 160.189579)"><g><path d="M 37.109375 1.21875 C 30.859375 1.21875 25.367188 -0.0625 20.640625 -2.625 C 15.910156 -5.195312 12.242188 -8.960938 9.640625 -13.921875 C 7.035156 -18.878906 5.734375 -24.875 5.734375 -31.90625 C 5.734375 -38.925781 7.035156 -44.925781 9.640625 -49.90625 C 12.242188 -54.882812 15.910156 -58.65625 20.640625 -61.21875 C 25.367188 -63.789062 30.859375 -65.078125 37.109375 -65.078125 C 43.367188 -65.078125 48.859375 -63.789062 53.578125 -61.21875 C 58.304688 -58.65625 61.984375 -54.882812 64.609375 -49.90625 C 67.234375 -44.925781 68.546875 -38.925781 68.546875 -31.90625 C 68.546875 -24.875 67.234375 -18.878906 64.609375 -13.921875 C 61.984375 -8.960938 58.304688 -5.195312 53.578125 -2.625 C 48.859375 -0.0625 43.367188 1.21875 37.109375 1.21875 Z M 37.109375 -12.390625 C 47.035156 -12.390625 52 -18.894531 52 -31.90625 C 52 -38.65625 50.722656 -43.601562 48.171875 -46.75 C 45.617188 -49.894531 41.929688 -51.46875 37.109375 -51.46875 C 27.191406 -51.46875 22.234375 -44.945312 22.234375 -31.90625 C 22.234375 -18.894531 27.191406 -12.390625 37.109375 -12.390625 Z M 37.109375 -12.390625 "/></g></g></g><g fill="#000000" fill-opacity="1"><g transform="translate(298.534149, 160.189579)"><g><path d="M 11.171875 0 L 11.171875 -51.1875 L 2.140625 -51.1875 L 2.140625 -63.921875 L 11.171875 -63.921875 C 10.515625 -66.617188 10.1875 -69.144531 10.1875 -71.5 C 10.1875 -75.550781 11.113281 -79.015625 12.96875 -81.890625 C 14.820312 -84.773438 17.484375 -86.96875 20.953125 -88.46875 C 24.429688 -89.976562 28.5625 -90.734375 33.34375 -90.734375 C 40.414062 -90.734375 45.6875 -89.515625 49.15625 -87.078125 L 45.390625 -75.265625 L 44.171875 -75.03125 C 41.785156 -76.726562 38.71875 -77.578125 34.96875 -77.578125 C 32.070312 -77.578125 29.898438 -76.875 28.453125 -75.46875 C 27.003906 -74.0625 26.28125 -72.144531 26.28125 -69.71875 C 26.28125 -68.664062 26.347656 -67.707031 26.484375 -66.84375 C 26.617188 -65.976562 26.863281 -65.003906 27.21875 -63.921875 L 45.453125 -63.921875 L 45.453125 -51.1875 L 27.21875 -51.1875 L 27.21875 0 Z M 11.171875 0 "/></g></g></g><g fill="#000000" fill-opacity="1"><g transform="translate(346.298307, 160.189579)"><g><path d="M 44.0625 -15.234375 L 48.234375 -3.359375 C 46.492188 -1.929688 44.3125 -0.8125 41.6875 0 C 39.0625 0.8125 36.085938 1.21875 32.765625 1.21875 C 25.859375 1.21875 20.609375 -0.660156 17.015625 -4.421875 C 13.429688 -8.191406 11.640625 -13.664062 11.640625 -20.84375 L 11.640625 -51.1875 L 1.90625 -51.1875 L 1.90625 -63.921875 L 11.640625 -63.921875 L 11.640625 -76.375 L 27.671875 -78.96875 L 27.671875 -63.921875 L 45.796875 -63.921875 L 45.796875 -51.1875 L 27.671875 -51.1875 L 27.671875 -22 C 27.671875 -18.832031 28.328125 -16.523438 29.640625 -15.078125 C 30.953125 -13.628906 32.863281 -12.90625 35.375 -12.90625 C 38.226562 -12.90625 40.71875 -13.679688 42.84375 -15.234375 Z M 44.0625 -15.234375 "/></g></g></g><g fill="#000000" fill-opacity="1"><g transform="translate(395.914981, 160.189579)"><g><path d="M 34.28125 0 L 17.484375 0 L 2.3125 -63.859375 L 17.203125 -63.859375 L 26.578125 -20.671875 L 27.796875 -20.671875 L 39.953125 -63.859375 L 53.84375 -63.859375 L 66.40625 -20.671875 L 67.625 -20.671875 L 76.65625 -63.859375 L 91.140625 -63.859375 L 76.140625 0 L 59.296875 0 L 47.1875 -43.484375 L 45.96875 -43.484375 Z M 34.28125 0 "/></g></g></g><g fill="#000000" fill-opacity="1"><g transform="translate(488.316551, 160.189579)"><g><path d="M 24.890625 1.21875 C 20.804688 1.21875 17.257812 0.464844 14.25 -1.03125 C 11.238281 -2.539062 8.921875 -4.753906 7.296875 -7.671875 C 5.671875 -10.585938 4.859375 -14.09375 4.859375 -18.1875 C 4.859375 -21.96875 5.671875 -25.140625 7.296875 -27.703125 C 8.921875 -30.273438 11.429688 -32.378906 14.828125 -34.015625 C 18.222656 -35.660156 22.660156 -36.925781 28.140625 -37.8125 C 31.960938 -38.425781 34.863281 -39.097656 36.84375 -39.828125 C 38.832031 -40.566406 40.175781 -41.398438 40.875 -42.328125 C 41.570312 -43.253906 41.921875 -44.429688 41.921875 -45.859375 C 41.921875 -47.898438 41.207031 -49.460938 39.78125 -50.546875 C 38.351562 -51.628906 35.976562 -52.171875 32.65625 -52.171875 C 29.101562 -52.171875 25.722656 -51.378906 22.515625 -49.796875 C 19.316406 -48.210938 16.539062 -46.128906 14.1875 -43.546875 L 13.03125 -43.546875 L 6.3125 -53.671875 C 9.550781 -57.265625 13.503906 -60.0625 18.171875 -62.0625 C 22.847656 -64.070312 27.945312 -65.078125 33.46875 -65.078125 C 41.914062 -65.078125 48.03125 -63.28125 51.8125 -59.6875 C 55.601562 -56.101562 57.5 -51.007812 57.5 -44.40625 L 57.5 -16.671875 C 57.5 -13.816406 58.75 -12.390625 61.25 -12.390625 C 62.21875 -12.390625 63.164062 -12.5625 64.09375 -12.90625 L 64.90625 -12.6875 L 66.0625 -1.5 C 65.175781 -0.925781 63.941406 -0.453125 62.359375 -0.078125 C 60.773438 0.285156 59.035156 0.46875 57.140625 0.46875 C 53.328125 0.46875 50.347656 -0.265625 48.203125 -1.734375 C 46.054688 -3.203125 44.519531 -5.5 43.59375 -8.625 L 42.375 -8.75 C 39.25 -2.101562 33.421875 1.21875 24.890625 1.21875 Z M 29.984375 -10.765625 C 33.691406 -10.765625 36.65625 -12.007812 38.875 -14.5 C 41.09375 -16.988281 42.203125 -20.453125 42.203125 -24.890625 L 42.203125 -31.375 L 41.109375 -31.609375 C 40.140625 -30.835938 38.875 -30.191406 37.3125 -29.671875 C 35.75 -29.148438 33.503906 -28.640625 30.578125 -28.140625 C 27.097656 -27.554688 24.59375 -26.5625 23.0625 -25.15625 C 21.539062 -23.75 20.78125 -21.753906 20.78125 -19.171875 C 20.78125 -16.421875 21.59375 -14.332031 23.21875 -12.90625 C 24.84375 -11.476562 27.097656 -10.765625 29.984375 -10.765625 Z M 29.984375 -10.765625 "/></g></g></g><g fill="#000000" fill-opacity="1"><g transform="translate(555.649305, 160.189579)"><g><path d="M 9.203125 0 L 9.203125 -63.859375 L 24.78125 -63.859375 L 24.78125 -54.375 L 26 -54.140625 C 27.539062 -57.691406 29.566406 -60.296875 32.078125 -61.953125 C 34.585938 -63.609375 37.632812 -64.4375 41.21875 -64.4375 C 44.851562 -64.4375 47.613281 -63.820312 49.5 -62.59375 L 46.78125 -48.75 L 45.5625 -48.515625 C 44.519531 -48.941406 43.515625 -49.25 42.546875 -49.4375 C 41.585938 -49.632812 40.414062 -49.734375 39.03125 -49.734375 C 34.550781 -49.734375 31.132812 -48.160156 28.78125 -45.015625 C 26.425781 -41.867188 25.25 -36.820312 25.25 -29.875 L 25.25 0 Z M 9.203125 0 "/></g></g></g><g fill="#000000" fill-opacity="1"><g transform="translate(604.050026, 160.189579)"><g><path d="M 63.109375 -28.3125 L 22.0625 -28.3125 C 22.519531 -22.75 24.097656 -18.703125 26.796875 -16.171875 C 29.503906 -13.648438 33.191406 -12.390625 37.859375 -12.390625 C 41.523438 -12.390625 44.5 -13.070312 46.78125 -14.4375 C 49.0625 -15.8125 50.894531 -17.890625 52.28125 -20.671875 L 53.5 -20.671875 L 64.15625 -13.84375 C 62.070312 -9.363281 58.925781 -5.734375 54.71875 -2.953125 C 50.507812 -0.171875 44.890625 1.21875 37.859375 1.21875 C 31.265625 1.21875 25.5625 -0.0351562 20.75 -2.546875 C 15.945312 -5.054688 12.242188 -8.789062 9.640625 -13.75 C 7.035156 -18.707031 5.734375 -24.757812 5.734375 -31.90625 C 5.734375 -39.15625 7.101562 -45.269531 9.84375 -50.25 C 12.582031 -55.226562 16.285156 -58.941406 20.953125 -61.390625 C 25.628906 -63.847656 30.878906 -65.078125 36.703125 -65.078125 C 45.734375 -65.078125 52.648438 -62.679688 57.453125 -57.890625 C 62.265625 -53.109375 64.671875 -46.085938 64.671875 -36.828125 C 64.671875 -33.460938 64.554688 -30.851562 64.328125 -29 Z M 49.328125 -38.671875 C 49.171875 -43.535156 48.039062 -47.078125 45.9375 -49.296875 C 43.832031 -51.515625 40.753906 -52.625 36.703125 -52.625 C 28.597656 -52.625 23.832031 -47.972656 22.40625 -38.671875 Z M 49.328125 -38.671875 "/></g></g></g><path fill="#007cc3" d="M 355.125 71.441406 L 359.613281 71.441406 L 359.613281 72.1875 L 355.125 72.1875 M 360.363281 71.441406 L 364.851562 71.441406 L 364.851562 72.1875 L 360.363281 72.1875 M 365.597656 71.441406 L 370.085938 71.441406 L 370.085938 72.1875 L 365.597656 72.1875 M 370.835938 71.441406 L 375.324219 71.441406 L 375.324219 72.1875 L 370.835938 72.1875 M 376.070312 71.441406 L 380.558594 71.441406 L 380.558594 72.1875 L 376.070312 72.1875 M 381.308594 71.441406 L 385.796875 71.441406 L 385.796875 72.1875 L 381.308594 72.1875 M 386.542969 71.441406 L 391.03125 71.441406 L 391.03125 72.1875 L 386.542969 72.1875 M 391.777344 71.441406 L 396.265625 71.441406 L 396.265625 72.1875 L 391.777344 72.1875 M 397.015625 71.441406 L 401.503906 71.441406 L 401.503906 72.1875 L 397.015625 72.1875 M 402.25 71.441406 L 406.738281 71.441406 L 406.738281 72.1875 L 402.25 72.1875 M 407.488281 71.441406 L 411.976562 71.441406 L 411.976562 72.1875 L 407.488281 72.1875 M 412.722656 71.441406 L 417.210938 71.441406 L 417.210938 72.1875 L 412.722656 72.1875 M 417.960938 71.441406 L 422.449219 71.441406 L 422.449219 72.1875 L 417.960938 72.1875 M 423.195312 71.441406 L 427.683594 71.441406 L 427.683594 72.1875 L 423.195312 72.1875 M 428.429688 71.441406 L 432.917969 71.441406 L 432.917969 72.1875 L 428.429688 72.1875 M 433.667969 71.441406 L 438.15625 71.441406 L 438.15625 72.1875 L 433.667969 72.1875 M 438.902344 71.441406 L 443.390625 71.441406 L 443.390625 72.1875 L 438.902344 72.1875 M 444.140625 71.441406 L 448.628906 71.441406 L 448.628906 72.1875 L 444.140625 72.1875 M 449.375 71.441406 L 453.863281 71.441406 L 453.863281 72.1875 L 449.375 72.1875 M 454.613281 71.441406 L 459.097656 71.441406 L 459.097656 72.1875 L 454.613281 72.1875 M 459.847656 71.441406 L 464.335938 71.441406 L 464.335938 72.1875 L 459.847656 72.1875 M 465.082031 71.441406 L 469.570312 71.441406 L 469.570312 72.1875 L 465.082031 72.1875 M 470.320312 71.441406 L 474.808594 71.441406 L 474.808594 72.1875 L 470.320312 72.1875 M 475.554688 71.441406 L 480.042969 71.441406 L 480.042969 72.1875 L 475.554688 72.1875 M 480.792969 71.441406 L 485.28125 71.441406 L 485.28125 72.1875 L 480.792969 72.1875 M 486.027344 71.441406 L 490.515625 71.441406 L 490.515625 72.1875 L 486.027344 72.1875 M 491.265625 71.441406 L 495.75 71.441406 L 495.75 72.1875 L 491.265625 72.1875 M 496.5 71.441406 L 500.988281 71.441406 L 500.988281 72.1875 L 496.5 72.1875 M 501.734375 71.441406 L 506.222656 71.441406 L 506.222656 72.1875 L 501.734375 72.1875 M 506.972656 71.441406 L 511.460938 71.441406 L 511.460938 72.1875 L 506.972656 72.1875 M 512.207031 71.441406 L 516.695312 71.441406 L 516.695312 72.1875 L 512.207031 72.1875 M 517.445312 71.441406 L 521.933594 71.441406 L 521.933594 72.1875 L 517.445312 72.1875 M 522.679688 71.441406 L 527.167969 71.441406 L 527.167969 72.1875 L 522.679688 72.1875 M 527.917969 71.441406 L 532.402344 71.441406 L 532.402344 72.1875 L 527.917969 72.1875 M 533.152344 71.441406 L 537.640625 71.441406 L 537.640625 72.1875 L 533.152344 72.1875 M 538.386719 71.441406 L 542.875 71.441406 L 542.875 72.1875 L 538.386719 72.1875 M 543.625 71.441406 L 548.113281 71.441406 L 548.113281 72.1875 L 543.625 72.1875 M 548.859375 71.441406 L 553.347656 71.441406 L 553.347656 72.1875 L 548.859375 72.1875 M 554.097656 71.441406 L 558.585938 71.441406 L 558.585938 72.1875 L 554.097656 72.1875 M 559.332031 71.441406 L 563.820312 71.441406 L 563.820312 72.1875 L 559.332031 72.1875 M 564.566406 71.441406 L 569.054688 71.441406 L 569.054688 72.1875 L 564.566406 72.1875 M 569.804688 71.441406 L 574.292969 71.441406 L 574.292969 72.1875 L 569.804688 72.1875 M 575.039062 71.441406 L 579.527344 71.441406 L 579.527344 72.1875 L 575.039062 72.1875 M 580.277344 71.441406 L 584.765625 71.441406 L 584.765625 72.1875 L 580.277344 72.1875 M 585.511719 71.441406 L 590 71.441406 L 590 72.1875 L 585.511719 72.1875 M 590.75 71.441406 L 595.238281 71.441406 L 595.238281 72.1875 L 590.75 72.1875 M 595.984375 71.441406 L 600.472656 71.441406 L 600.472656 72.1875 L 595.984375 72.1875 M 601.21875 71.441406 L 605.707031 71.441406 L 605.707031 72.1875 L 601.21875 72.1875 M 606.457031 71.441406 L 610.945312 71.441406 L 610.945312 72.1875 L 606.457031 72.1875 M 611.691406 71.441406 L 616.179688 71.441406 L 616.179688 72.1875 L 611.691406 72.1875 M 616.929688 71.441406 L 621.417969 71.441406 L 621.417969 72.1875 L 616.929688 72.1875 M 622.164062 71.441406 L 626.652344 71.441406 L 626.652344 72.1875 L 622.164062 72.1875 M 627.402344 71.441406 L 631.890625 71.441406 L 631.890625 72.1875 L 627.402344 72.1875 M 632.636719 71.441406 L 637.125 71.441406 L 637.125 72.1875 L 632.636719 72.1875 M 637.871094 71.441406 L 642.359375 71.441406 L 642.359375 72.1875 L 637.871094 72.1875 M 643.109375 71.441406 L 647.597656 71.441406 L 647.597656 72.1875 L 643.109375 72.1875 M 648.34375 71.441406 L 652.832031 71.441406 L 652.832031 72.1875 L 648.34375 72.1875 M 653.582031 71.441406 L 658.070312 71.441406 L 658.070312 72.1875 L 653.582031 72.1875 M 658.816406 71.441406 L 663.304688 71.441406 L 663.304688 72.1875 L 658.816406 72.1875 M 664.054688 71.441406 L 668.542969 71.441406 L 668.542969 72.1875 L 664.054688 72.1875 " fill-opacity="1" fill-rule="nonzero"/><g transform="matrix(1, 0, 0, 1, 215, 16)"><g clip-path="url(#ae02748cc9)"><g fill="#000000" fill-opacity="1"><g transform="translate(0.948082, 40.476984)"><g><path d="M 47.1875 -28.953125 L 37.71875 0 L 30.515625 0 L 24.15625 -19.609375 L 17.578125 0 L 10.421875 0 L 0.90625 -28.953125 L 7.859375 -28.953125 L 14.390625 -8.609375 L 21.21875 -28.953125 L 27.421875 -28.953125 L 34.03125 -8.4375 L 40.78125 -28.953125 Z M 47.1875 -28.953125 "/></g></g></g><g fill="#000000" fill-opacity="1"><g transform="translate(46.63944, 40.476984)"><g><path d="M 24.78125 -11.046875 C 24.78125 -10.960938 24.738281 -10.382812 24.65625 -9.3125 L 7.8125 -9.3125 C 8.113281 -7.925781 8.828125 -6.832031 9.953125 -6.03125 C 11.085938 -5.238281 12.5 -4.84375 14.1875 -4.84375 C 15.34375 -4.84375 16.367188 -5.015625 17.265625 -5.359375 C 18.160156 -5.703125 18.992188 -6.242188 19.765625 -6.984375 L 23.203125 -3.265625 C 21.109375 -0.867188 18.046875 0.328125 14.015625 0.328125 C 11.503906 0.328125 9.285156 -0.160156 7.359375 -1.140625 C 5.429688 -2.117188 3.941406 -3.472656 2.890625 -5.203125 C 1.847656 -6.941406 1.328125 -8.914062 1.328125 -11.125 C 1.328125 -13.300781 1.84375 -15.265625 2.875 -17.015625 C 3.90625 -18.765625 5.320312 -20.128906 7.125 -21.109375 C 8.9375 -22.085938 10.957031 -22.578125 13.1875 -22.578125 C 15.375 -22.578125 17.347656 -22.109375 19.109375 -21.171875 C 20.867188 -20.234375 22.253906 -18.890625 23.265625 -17.140625 C 24.273438 -15.390625 24.78125 -13.359375 24.78125 -11.046875 Z M 13.234375 -17.703125 C 11.773438 -17.703125 10.546875 -17.285156 9.546875 -16.453125 C 8.554688 -15.628906 7.953125 -14.5 7.734375 -13.0625 L 18.6875 -13.0625 C 18.46875 -14.46875 17.863281 -15.59375 16.875 -16.4375 C 15.882812 -17.28125 14.671875 -17.703125 13.234375 -17.703125 Z M 13.234375 -17.703125 "/></g></g></g><g fill="#000000" fill-opacity="1"><g transform="translate(72.607144, 40.476984)"><g><path d="M 16.125 -22.578125 C 18.195312 -22.578125 20.078125 -22.101562 21.765625 -21.15625 C 23.460938 -20.207031 24.796875 -18.867188 25.765625 -17.140625 C 26.734375 -15.421875 27.21875 -13.414062 27.21875 -11.125 C 27.21875 -8.832031 26.734375 -6.820312 25.765625 -5.09375 C 24.796875 -3.375 23.460938 -2.039062 21.765625 -1.09375 C 20.078125 -0.144531 18.195312 0.328125 16.125 0.328125 C 13.070312 0.328125 10.742188 -0.632812 9.140625 -2.5625 L 9.140625 0 L 2.984375 0 L 2.984375 -30.6875 L 9.4375 -30.6875 L 9.4375 -19.890625 C 11.0625 -21.679688 13.289062 -22.578125 16.125 -22.578125 Z M 15.015625 -4.96875 C 16.671875 -4.96875 18.03125 -5.523438 19.09375 -6.640625 C 20.15625 -7.753906 20.6875 -9.25 20.6875 -11.125 C 20.6875 -13 20.15625 -14.492188 19.09375 -15.609375 C 18.03125 -16.722656 16.671875 -17.28125 15.015625 -17.28125 C 13.359375 -17.28125 12 -16.722656 10.9375 -15.609375 C 9.875 -14.492188 9.34375 -13 9.34375 -11.125 C 9.34375 -9.25 9.875 -7.753906 10.9375 -6.640625 C 12 -5.523438 13.359375 -4.96875 15.015625 -4.96875 Z M 15.015625 -4.96875 "/></g></g></g><g fill="#000000" fill-opacity="1"><g transform="translate(101.014488, 40.476984)"><g/></g></g><g fill="#000000" fill-opacity="1"><g transform="translate(112.592419, 40.476984)"><g><path d="M 29.78125 0 L 29.734375 -17.375 L 21.21875 -3.0625 L 18.203125 -3.0625 L 9.71875 -17 L 9.71875 0 L 3.4375 0 L 3.4375 -28.953125 L 8.96875 -28.953125 L 19.8125 -10.953125 L 30.484375 -28.953125 L 35.984375 -28.953125 L 36.0625 0 Z M 29.78125 0 "/></g></g></g><g fill="#000000" fill-opacity="1"><g transform="translate(151.957474, 40.476984)"><g><path d="M 13.5625 0.328125 C 11.21875 0.328125 9.113281 -0.160156 7.25 -1.140625 C 5.394531 -2.117188 3.941406 -3.472656 2.890625 -5.203125 C 1.847656 -6.941406 1.328125 -8.914062 1.328125 -11.125 C 1.328125 -13.332031 1.847656 -15.300781 2.890625 -17.03125 C 3.941406 -18.769531 5.394531 -20.128906 7.25 -21.109375 C 9.113281 -22.085938 11.21875 -22.578125 13.5625 -22.578125 C 15.90625 -22.578125 18 -22.085938 19.84375 -21.109375 C 21.695312 -20.128906 23.144531 -18.769531 24.1875 -17.03125 C 25.238281 -15.300781 25.765625 -13.332031 25.765625 -11.125 C 25.765625 -8.914062 25.238281 -6.941406 24.1875 -5.203125 C 23.144531 -3.472656 21.695312 -2.117188 19.84375 -1.140625 C 18 -0.160156 15.90625 0.328125 13.5625 0.328125 Z M 13.5625 -4.96875 C 15.21875 -4.96875 16.578125 -5.523438 17.640625 -6.640625 C 18.703125 -7.753906 19.234375 -9.25 19.234375 -11.125 C 19.234375 -13 18.703125 -14.492188 17.640625 -15.609375 C 16.578125 -16.722656 15.21875 -17.28125 13.5625 -17.28125 C 11.90625 -17.28125 10.539062 -16.722656 9.46875 -15.609375 C 8.394531 -14.492188 7.859375 -13 7.859375 -11.125 C 7.859375 -9.25 8.394531 -7.753906 9.46875 -6.640625 C 10.539062 -5.523438 11.90625 -4.96875 13.5625 -4.96875 Z M 13.5625 -4.96875 "/></g></g></g><g fill="#000000" fill-opacity="1"><g transform="translate(178.91756, 40.476984)"><g><path d="M 16.125 -22.578125 C 18.195312 -22.578125 20.078125 -22.101562 21.765625 -21.15625 C 23.460938 -20.207031 24.796875 -18.867188 25.765625 -17.140625 C 26.734375 -15.421875 27.21875 -13.414062 27.21875 -11.125 C 27.21875 -8.832031 26.734375 -6.820312 25.765625 -5.09375 C 24.796875 -3.375 23.460938 -2.039062 21.765625 -1.09375 C 20.078125 -0.144531 18.195312 0.328125 16.125 0.328125 C 13.070312 0.328125 10.742188 -0.632812 9.140625 -2.5625 L 9.140625 0 L 2.984375 0 L 2.984375 -30.6875 L 9.4375 -30.6875 L 9.4375 -19.890625 C 11.0625 -21.679688 13.289062 -22.578125 16.125 -22.578125 Z M 15.015625 -4.96875 C 16.671875 -4.96875 18.03125 -5.523438 19.09375 -6.640625 C 20.15625 -7.753906 20.6875 -9.25 20.6875 -11.125 C 20.6875 -13 20.15625 -14.492188 19.09375 -15.609375 C 18.03125 -16.722656 16.671875 -17.28125 15.015625 -17.28125 C 13.359375 -17.28125 12 -16.722656 10.9375 -15.609375 C 9.875 -14.492188 9.34375 -13 9.34375 -11.125 C 9.34375 -9.25 9.875 -7.753906 10.9375 -6.640625 C 12 -5.523438 13.359375 -4.96875 15.015625 -4.96875 Z M 15.015625 -4.96875 "/></g></g></g><g fill="#000000" fill-opacity="1"><g transform="translate(207.324903, 40.476984)"><g><path d="M 2.984375 -22.25 L 9.4375 -22.25 L 9.4375 0 L 2.984375 0 Z M 6.203125 -25.359375 C 5.015625 -25.359375 4.046875 -25.703125 3.296875 -26.390625 C 2.554688 -27.078125 2.1875 -27.929688 2.1875 -28.953125 C 2.1875 -29.972656 2.554688 -30.828125 3.296875 -31.515625 C 4.046875 -32.203125 5.015625 -32.546875 6.203125 -32.546875 C 7.390625 -32.546875 8.351562 -32.210938 9.09375 -31.546875 C 9.84375 -30.890625 10.21875 -30.066406 10.21875 -29.078125 C 10.21875 -28.003906 9.84375 -27.113281 9.09375 -26.40625 C 8.351562 -25.707031 7.390625 -25.359375 6.203125 -25.359375 Z M 6.203125 -25.359375 "/></g></g></g><g fill="#000000" fill-opacity="1"><g transform="translate(219.647136, 40.476984)"><g><path d="M 2.984375 -30.6875 L 9.4375 -30.6875 L 9.4375 0 L 2.984375 0 Z M 2.984375 -30.6875 "/></g></g></g><g fill="#000000" fill-opacity="1"><g transform="translate(231.969369, 40.476984)"><g><path d="M 24.78125 -11.046875 C 24.78125 -10.960938 24.738281 -10.382812 24.65625 -9.3125 L 7.8125 -9.3125 C 8.113281 -7.925781 8.828125 -6.832031 9.953125 -6.03125 C 11.085938 -5.238281 12.5 -4.84375 14.1875 -4.84375 C 15.34375 -4.84375 16.367188 -5.015625 17.265625 -5.359375 C 18.160156 -5.703125 18.992188 -6.242188 19.765625 -6.984375 L 23.203125 -3.265625 C 21.109375 -0.867188 18.046875 0.328125 14.015625 0.328125 C 11.503906 0.328125 9.285156 -0.160156 7.359375 -1.140625 C 5.429688 -2.117188 3.941406 -3.472656 2.890625 -5.203125 C 1.847656 -6.941406 1.328125 -8.914062 1.328125 -11.125 C 1.328125 -13.300781 1.84375 -15.265625 2.875 -17.015625 C 3.90625 -18.765625 5.320312 -20.128906 7.125 -21.109375 C 8.9375 -22.085938 10.957031 -22.578125 13.1875 -22.578125 C 15.375 -22.578125 17.347656 -22.109375 19.109375 -21.171875 C 20.867188 -20.234375 22.253906 -18.890625 23.265625 -17.140625 C 24.273438 -15.390625 24.78125 -13.359375 24.78125 -11.046875 Z M 13.234375 -17.703125 C 11.773438 -17.703125 10.546875 -17.285156 9.546875 -16.453125 C 8.554688 -15.628906 7.953125 -14.5 7.734375 -13.0625 L 18.6875 -13.0625 C 18.46875 -14.46875 17.863281 -15.59375 16.875 -16.4375 C 15.882812 -17.28125 14.671875 -17.703125 13.234375 -17.703125 Z M 13.234375 -17.703125 "/></g></g></g><g fill="#000000" fill-opacity="1"><g transform="translate(257.937074, 40.476984)"><g/></g></g><g fill="#000000" fill-opacity="1"><g transform="translate(269.515005, 40.476984)"><g><path d="M 17.28125 0.5 C 14.332031 0.5 11.664062 -0.140625 9.28125 -1.421875 C 6.894531 -2.703125 5.019531 -4.476562 3.65625 -6.75 C 2.289062 -9.03125 1.609375 -11.601562 1.609375 -14.46875 C 1.609375 -17.34375 2.289062 -19.914062 3.65625 -22.1875 C 5.019531 -24.457031 6.894531 -26.234375 9.28125 -27.515625 C 11.664062 -28.804688 14.347656 -29.453125 17.328125 -29.453125 C 19.835938 -29.453125 22.101562 -29.007812 24.125 -28.125 C 26.15625 -27.238281 27.859375 -25.96875 29.234375 -24.3125 L 24.9375 -20.34375 C 22.976562 -22.601562 20.550781 -23.734375 17.65625 -23.734375 C 15.863281 -23.734375 14.265625 -23.34375 12.859375 -22.5625 C 11.453125 -21.78125 10.351562 -20.6875 9.5625 -19.28125 C 8.78125 -17.875 8.390625 -16.269531 8.390625 -14.46875 C 8.390625 -12.675781 8.78125 -11.078125 9.5625 -9.671875 C 10.351562 -8.265625 11.453125 -7.171875 12.859375 -6.390625 C 14.265625 -5.609375 15.863281 -5.21875 17.65625 -5.21875 C 20.550781 -5.21875 22.976562 -6.359375 24.9375 -8.640625 L 29.234375 -4.671875 C 27.859375 -2.992188 26.148438 -1.710938 24.109375 -0.828125 C 22.066406 0.0546875 19.789062 0.5 17.28125 0.5 Z M 17.28125 0.5 "/></g></g></g><g fill="#000000" fill-opacity="1"><g transform="translate(299.7004, 40.476984)"><g><path d="M 2.984375 -30.6875 L 9.4375 -30.6875 L 9.4375 0 L 2.984375 0 Z M 2.984375 -30.6875 "/></g></g></g><g fill="#000000" fill-opacity="1"><g transform="translate(312.022633, 40.476984)"><g><path d="M 13.5625 0.328125 C 11.21875 0.328125 9.113281 -0.160156 7.25 -1.140625 C 5.394531 -2.117188 3.941406 -3.472656 2.890625 -5.203125 C 1.847656 -6.941406 1.328125 -8.914062 1.328125 -11.125 C 1.328125 -13.332031 1.847656 -15.300781 2.890625 -17.03125 C 3.941406 -18.769531 5.394531 -20.128906 7.25 -21.109375 C 9.113281 -22.085938 11.21875 -22.578125 13.5625 -22.578125 C 15.90625 -22.578125 18 -22.085938 19.84375 -21.109375 C 21.695312 -20.128906 23.144531 -18.769531 24.1875 -17.03125 C 25.238281 -15.300781 25.765625 -13.332031 25.765625 -11.125 C 25.765625 -8.914062 25.238281 -6.941406 24.1875 -5.203125 C 23.144531 -3.472656 21.695312 -2.117188 19.84375 -1.140625 C 18 -0.160156 15.90625 0.328125 13.5625 0.328125 Z M 13.5625 -4.96875 C 15.21875 -4.96875 16.578125 -5.523438 17.640625 -6.640625 C 18.703125 -7.753906 19.234375 -9.25 19.234375 -11.125 C 19.234375 -13 18.703125 -14.492188 17.640625 -15.609375 C 16.578125 -16.722656 15.21875 -17.28125 13.5625 -17.28125 C 11.90625 -17.28125 10.539062 -16.722656 9.46875 -15.609375 C 8.394531 -14.492188 7.859375 -13 7.859375 -11.125 C 7.859375 -9.25 8.394531 -7.753906 9.46875 -6.640625 C 10.539062 -5.523438 11.90625 -4.96875 13.5625 -4.96875 Z M 13.5625 -4.96875 "/></g></g></g><g fill="#000000" fill-opacity="1"><g transform="translate(338.982719, 40.476984)"><g><path d="M 25.390625 -22.25 L 25.390625 0 L 19.28125 0 L 19.28125 -2.640625 C 18.414062 -1.679688 17.390625 -0.945312 16.203125 -0.4375 C 15.023438 0.0703125 13.742188 0.328125 12.359375 0.328125 C 9.441406 0.328125 7.128906 -0.507812 5.421875 -2.1875 C 3.710938 -3.875 2.859375 -6.367188 2.859375 -9.671875 L 2.859375 -22.25 L 9.3125 -22.25 L 9.3125 -10.625 C 9.3125 -7.039062 10.8125 -5.25 13.8125 -5.25 C 15.351562 -5.25 16.59375 -5.75 17.53125 -6.75 C 18.46875 -7.757812 18.9375 -9.257812 18.9375 -11.25 L 18.9375 -22.25 Z M 25.390625 -22.25 "/></g></g></g><g fill="#000000" fill-opacity="1"><g transform="translate(367.265981, 40.476984)"><g><path d="M 25.640625 -30.6875 L 25.640625 0 L 19.484375 0 L 19.484375 -2.5625 C 17.878906 -0.632812 15.5625 0.328125 12.53125 0.328125 C 10.4375 0.328125 8.539062 -0.140625 6.84375 -1.078125 C 5.144531 -2.015625 3.8125 -3.347656 2.84375 -5.078125 C 1.882812 -6.816406 1.40625 -8.832031 1.40625 -11.125 C 1.40625 -13.414062 1.882812 -15.425781 2.84375 -17.15625 C 3.8125 -18.894531 5.144531 -20.234375 6.84375 -21.171875 C 8.539062 -22.109375 10.4375 -22.578125 12.53125 -22.578125 C 15.375 -22.578125 17.59375 -21.679688 19.1875 -19.890625 L 19.1875 -30.6875 Z M 13.65625 -4.96875 C 15.28125 -4.96875 16.628906 -5.523438 17.703125 -6.640625 C 18.773438 -7.753906 19.3125 -9.25 19.3125 -11.125 C 19.3125 -13 18.773438 -14.492188 17.703125 -15.609375 C 16.628906 -16.722656 15.28125 -17.28125 13.65625 -17.28125 C 12 -17.28125 10.628906 -16.722656 9.546875 -15.609375 C 8.472656 -14.492188 7.9375 -13 7.9375 -11.125 C 7.9375 -9.25 8.472656 -7.753906 9.546875 -6.640625 C 10.628906 -5.523438 12 -4.96875 13.65625 -4.96875 Z M 13.65625 -4.96875 "/></g></g></g><g fill="#000000" fill-opacity="1"><g transform="translate(395.756039, 40.476984)"><g/></g></g><g fill="#000000" fill-opacity="1"><g transform="translate(407.333971, 40.476984)"><g><path d="M 22.5 -6.203125 L 9.0625 -6.203125 L 6.5 0 L -0.375 0 L 12.53125 -28.953125 L 19.15625 -28.953125 L 32.09375 0 L 25.0625 0 Z M 20.390625 -11.296875 L 15.796875 -22.375 L 11.203125 -11.296875 Z M 20.390625 -11.296875 "/></g></g></g><g fill="#000000" fill-opacity="1"><g transform="translate(438.88393, 40.476984)"><g><path d="M 3.4375 -28.953125 L 10.140625 -28.953125 L 10.140625 0 Z "/></g></g></g></g></g><g clip-path="url(#6d433a5b72)"><path fill="#007cc3" d="M 324.703125 38.984375 C 322.640625 38.984375 320.972656 40.652344 320.972656 42.710938 C 320.972656 44.769531 322.640625 46.441406 324.703125 46.441406 C 326.761719 46.441406 328.429688 44.769531 328.429688 42.710938 C 328.429688 40.652344 326.761719 38.984375 324.703125 38.984375 Z M 324.703125 38.984375 " fill-opacity="1" fill-rule="nonzero"/></g><g fill="#000000" fill-opacity="1"><g transform="translate(371.414818, 102.102719)"><g/></g></g><path fill="#007cc3" d="M 216.746094 72.9375 L 221.234375 72.9375 L 221.234375 73.683594 L 216.746094 73.683594 M 221.980469 72.9375 L 226.46875 72.9375 L 226.46875 73.683594 L 221.980469 73.683594 M 227.21875 72.9375 L 231.707031 72.9375 L 231.707031 73.683594 L 227.21875 73.683594 M 232.453125 72.9375 L 236.941406 72.9375 L 236.941406 73.683594 L 232.453125 73.683594 M 237.691406 72.9375 L 242.179688 72.9375 L 242.179688 73.683594 L 237.691406 73.683594 M 242.925781 72.9375 L 247.414062 72.9375 L 247.414062 73.683594 L 242.925781 73.683594 M 248.160156 72.9375 L 252.648438 72.9375 L 252.648438 73.683594 L 248.160156 73.683594 M 253.398438 72.9375 L 257.886719 72.9375 L 257.886719 73.683594 L 253.398438 73.683594 M 258.632812 72.9375 L 263.121094 72.9375 L 263.121094 73.683594 L 258.632812 73.683594 M 263.871094 72.9375 L 268.359375 72.9375 L 268.359375 73.683594 L 263.871094 73.683594 M 269.105469 72.9375 L 273.59375 72.9375 L 273.59375 73.683594 L 269.105469 73.683594 M 274.34375 72.9375 L 278.832031 72.9375 L 278.832031 73.683594 L 274.34375 73.683594 M 279.578125 72.9375 L 284.066406 72.9375 L 284.066406 73.683594 L 279.578125 73.683594 M 284.8125 72.9375 L 289.300781 72.9375 L 289.300781 73.683594 L 284.8125 73.683594 M 290.050781 72.9375 L 294.539062 72.9375 L 294.539062 73.683594 L 290.050781 73.683594 M 295.285156 72.9375 L 299.773438 72.9375 L 299.773438 73.683594 L 295.285156 73.683594 M 300.523438 72.9375 L 305.011719 72.9375 L 305.011719 73.683594 L 300.523438 73.683594 M 305.757812 72.9375 L 310.222656 72.9375 L 310.222656 73.683594 L 305.757812 73.683594 " fill-opacity="1" fill-rule="nonzero"/><g clip-path="url(#10cc5fbdd9)"><path fill="#007cc3" d="M 478.695312 38.984375 C 476.636719 38.984375 474.96875 40.652344 474.96875 42.710938 C 474.96875 44.769531 476.636719 46.441406 478.695312 46.441406 C 480.757812 46.441406 482.425781 44.769531 482.425781 42.710938 C 482.425781 40.652344 480.757812 38.984375 478.695312 38.984375 Z M 478.695312 38.984375 " fill-opacity="1" fill-rule="nonzero"/></g><g clip-path="url(#33ddd00472)"><path fill="#007cc3" d="M 619 38.984375 C 616.941406 38.984375 615.273438 40.652344 615.273438 42.710938 C 615.273438 44.769531 616.941406 46.441406 619 46.441406 C 621.0625 46.441406 622.730469 44.769531 622.730469 42.710938 C 622.730469 40.652344 621.0625 38.984375 619 38.984375 Z M 619 38.984375 " fill-opacity="1" fill-rule="nonzero"/></g></svg>
