<svg xmlns="http://www.w3.org/2000/svg" xmlns:xlink="http://www.w3.org/1999/xlink" width="1000" zoomAndPan="magnify" viewBox="0 0 750 187.499995" height="250" preserveAspectRatio="xMidYMid meet" version="1.0"><defs><g/><clipPath id="66630544a4"><path d="M 0.996094 0 L 232 0 L 232 187 L 0.996094 187 Z M 0.996094 0 " clip-rule="nonzero"/></clipPath><clipPath id="61f704862b"><rect x="0" width="232" y="0" height="187"/></clipPath><clipPath id="9da235a7b8"><rect x="0" width="453" y="0" height="45"/></clipPath><clipPath id="6b7ad57423"><path d="M 441.453125 52.554688 L 446.6875 52.554688 L 446.6875 57.789062 L 441.453125 57.789062 Z M 441.453125 52.554688 " clip-rule="nonzero"/></clipPath><clipPath id="78831e0c85"><path d="M 307.386719 52.554688 L 312.621094 52.554688 L 312.621094 57.789062 L 307.386719 57.789062 Z M 307.386719 52.554688 " clip-rule="nonzero"/></clipPath><clipPath id="b35b92ff1b"><path d="M 560.222656 52.554688 L 565.460938 52.554688 L 565.460938 57.789062 L 560.222656 57.789062 Z M 560.222656 52.554688 " clip-rule="nonzero"/></clipPath><clipPath id="28734127a3"><path d="M 607.746094 52.554688 L 612.980469 52.554688 L 612.980469 57.789062 L 607.746094 57.789062 Z M 607.746094 52.554688 " clip-rule="nonzero"/></clipPath></defs><g clip-path="url(#66630544a4)"><g transform="matrix(1, 0, 0, 1, 0.000000000000000111, 0)"><g clip-path="url(#61f704862b)"><g fill="#007cc3" fill-opacity="1"><g transform="translate(-8.320585, 180.711715)"><g><path d="M 92.765625 2.4375 C 77.128906 2.4375 63.347656 -0.8125 51.421875 -7.3125 C 39.503906 -13.8125 30.175781 -23.582031 23.4375 -36.625 C 16.707031 -49.664062 13.34375 -65.742188 13.34375 -84.859375 C 13.34375 -103.984375 16.707031 -120.066406 23.4375 -133.109375 C 30.175781 -146.148438 39.503906 -155.921875 51.421875 -162.421875 C 63.347656 -168.921875 77.128906 -172.171875 92.765625 -172.171875 C 109.085938 -172.171875 122.957031 -168.976562 134.375 -162.59375 C 145.789062 -156.207031 153.9375 -146.472656 158.8125 -133.390625 L 134.328125 -118.421875 L 131.421875 -118.53125 C 127.785156 -127.351562 122.847656 -133.679688 116.609375 -137.515625 C 110.378906 -141.347656 102.429688 -143.265625 92.765625 -143.265625 C 78.671875 -143.265625 67.675781 -138.597656 59.78125 -129.265625 C 51.894531 -119.941406 47.953125 -105.140625 47.953125 -84.859375 C 47.953125 -64.660156 51.894531 -49.898438 59.78125 -40.578125 C 67.675781 -31.253906 78.671875 -26.59375 92.765625 -26.59375 C 114.816406 -26.59375 128.320312 -37.3125 133.28125 -58.75 L 136.1875 -58.75 L 160.90625 -45.859375 C 156.257812 -29.753906 148.328125 -17.675781 137.109375 -9.625 C 125.890625 -1.582031 111.109375 2.4375 92.765625 2.4375 Z M 92.765625 2.4375 "/></g></g><g transform="translate(158.160426, 180.711715)"><g><path d="M 53.171875 2.4375 C 41.640625 2.4375 32.832031 -0.675781 26.75 -6.90625 C 20.675781 -13.132812 17.640625 -22.597656 17.640625 -35.296875 L 17.640625 -179.484375 L 49.8125 -179.484375 L 49.8125 -36.578125 C 49.8125 -28.753906 53.0625 -24.84375 59.5625 -24.84375 C 61.414062 -24.84375 63.390625 -25.148438 65.484375 -25.765625 L 67.109375 -25.3125 L 70 -0.578125 C 68.226562 0.347656 65.867188 1.082031 62.921875 1.625 C 59.984375 2.164062 56.734375 2.4375 53.171875 2.4375 Z M 53.171875 2.4375 "/></g></g></g></g></g></g><g fill="#007cc3" fill-opacity="1"><g transform="translate(224.311781, 160.189579)"><g><path d="M 37.109375 1.21875 C 30.859375 1.21875 25.367188 -0.0625 20.640625 -2.625 C 15.910156 -5.195312 12.242188 -8.960938 9.640625 -13.921875 C 7.035156 -18.878906 5.734375 -24.875 5.734375 -31.90625 C 5.734375 -38.925781 7.035156 -44.925781 9.640625 -49.90625 C 12.242188 -54.882812 15.910156 -58.65625 20.640625 -61.21875 C 25.367188 -63.789062 30.859375 -65.078125 37.109375 -65.078125 C 43.367188 -65.078125 48.859375 -63.789062 53.578125 -61.21875 C 58.304688 -58.65625 61.984375 -54.882812 64.609375 -49.90625 C 67.234375 -44.925781 68.546875 -38.925781 68.546875 -31.90625 C 68.546875 -24.875 67.234375 -18.878906 64.609375 -13.921875 C 61.984375 -8.960938 58.304688 -5.195312 53.578125 -2.625 C 48.859375 -0.0625 43.367188 1.21875 37.109375 1.21875 Z M 37.109375 -12.390625 C 47.035156 -12.390625 52 -18.894531 52 -31.90625 C 52 -38.65625 50.722656 -43.601562 48.171875 -46.75 C 45.617188 -49.894531 41.929688 -51.46875 37.109375 -51.46875 C 27.191406 -51.46875 22.234375 -44.945312 22.234375 -31.90625 C 22.234375 -18.894531 27.191406 -12.390625 37.109375 -12.390625 Z M 37.109375 -12.390625 "/></g></g></g><g fill="#007cc3" fill-opacity="1"><g transform="translate(298.534149, 160.189579)"><g><path d="M 11.171875 0 L 11.171875 -51.1875 L 2.140625 -51.1875 L 2.140625 -63.921875 L 11.171875 -63.921875 C 10.515625 -66.617188 10.1875 -69.144531 10.1875 -71.5 C 10.1875 -75.550781 11.113281 -79.015625 12.96875 -81.890625 C 14.820312 -84.773438 17.484375 -86.96875 20.953125 -88.46875 C 24.429688 -89.976562 28.5625 -90.734375 33.34375 -90.734375 C 40.414062 -90.734375 45.6875 -89.515625 49.15625 -87.078125 L 45.390625 -75.265625 L 44.171875 -75.03125 C 41.785156 -76.726562 38.71875 -77.578125 34.96875 -77.578125 C 32.070312 -77.578125 29.898438 -76.875 28.453125 -75.46875 C 27.003906 -74.0625 26.28125 -72.144531 26.28125 -69.71875 C 26.28125 -68.664062 26.347656 -67.707031 26.484375 -66.84375 C 26.617188 -65.976562 26.863281 -65.003906 27.21875 -63.921875 L 45.453125 -63.921875 L 45.453125 -51.1875 L 27.21875 -51.1875 L 27.21875 0 Z M 11.171875 0 "/></g></g></g><g fill="#007cc3" fill-opacity="1"><g transform="translate(346.298307, 160.189579)"><g><path d="M 44.0625 -15.234375 L 48.234375 -3.359375 C 46.492188 -1.929688 44.3125 -0.8125 41.6875 0 C 39.0625 0.8125 36.085938 1.21875 32.765625 1.21875 C 25.859375 1.21875 20.609375 -0.660156 17.015625 -4.421875 C 13.429688 -8.191406 11.640625 -13.664062 11.640625 -20.84375 L 11.640625 -51.1875 L 1.90625 -51.1875 L 1.90625 -63.921875 L 11.640625 -63.921875 L 11.640625 -76.375 L 27.671875 -78.96875 L 27.671875 -63.921875 L 45.796875 -63.921875 L 45.796875 -51.1875 L 27.671875 -51.1875 L 27.671875 -22 C 27.671875 -18.832031 28.328125 -16.523438 29.640625 -15.078125 C 30.953125 -13.628906 32.863281 -12.90625 35.375 -12.90625 C 38.226562 -12.90625 40.71875 -13.679688 42.84375 -15.234375 Z M 44.0625 -15.234375 "/></g></g></g><g fill="#007cc3" fill-opacity="1"><g transform="translate(395.914981, 160.189579)"><g><path d="M 34.28125 0 L 17.484375 0 L 2.3125 -63.859375 L 17.203125 -63.859375 L 26.578125 -20.671875 L 27.796875 -20.671875 L 39.953125 -63.859375 L 53.84375 -63.859375 L 66.40625 -20.671875 L 67.625 -20.671875 L 76.65625 -63.859375 L 91.140625 -63.859375 L 76.140625 0 L 59.296875 0 L 47.1875 -43.484375 L 45.96875 -43.484375 Z M 34.28125 0 "/></g></g></g><g fill="#007cc3" fill-opacity="1"><g transform="translate(488.316551, 160.189579)"><g><path d="M 24.890625 1.21875 C 20.804688 1.21875 17.257812 0.464844 14.25 -1.03125 C 11.238281 -2.539062 8.921875 -4.753906 7.296875 -7.671875 C 5.671875 -10.585938 4.859375 -14.09375 4.859375 -18.1875 C 4.859375 -21.96875 5.671875 -25.140625 7.296875 -27.703125 C 8.921875 -30.273438 11.429688 -32.378906 14.828125 -34.015625 C 18.222656 -35.660156 22.660156 -36.925781 28.140625 -37.8125 C 31.960938 -38.425781 34.863281 -39.097656 36.84375 -39.828125 C 38.832031 -40.566406 40.175781 -41.398438 40.875 -42.328125 C 41.570312 -43.253906 41.921875 -44.429688 41.921875 -45.859375 C 41.921875 -47.898438 41.207031 -49.460938 39.78125 -50.546875 C 38.351562 -51.628906 35.976562 -52.171875 32.65625 -52.171875 C 29.101562 -52.171875 25.722656 -51.378906 22.515625 -49.796875 C 19.316406 -48.210938 16.539062 -46.128906 14.1875 -43.546875 L 13.03125 -43.546875 L 6.3125 -53.671875 C 9.550781 -57.265625 13.503906 -60.0625 18.171875 -62.0625 C 22.847656 -64.070312 27.945312 -65.078125 33.46875 -65.078125 C 41.914062 -65.078125 48.03125 -63.28125 51.8125 -59.6875 C 55.601562 -56.101562 57.5 -51.007812 57.5 -44.40625 L 57.5 -16.671875 C 57.5 -13.816406 58.75 -12.390625 61.25 -12.390625 C 62.21875 -12.390625 63.164062 -12.5625 64.09375 -12.90625 L 64.90625 -12.6875 L 66.0625 -1.5 C 65.175781 -0.925781 63.941406 -0.453125 62.359375 -0.078125 C 60.773438 0.285156 59.035156 0.46875 57.140625 0.46875 C 53.328125 0.46875 50.347656 -0.265625 48.203125 -1.734375 C 46.054688 -3.203125 44.519531 -5.5 43.59375 -8.625 L 42.375 -8.75 C 39.25 -2.101562 33.421875 1.21875 24.890625 1.21875 Z M 29.984375 -10.765625 C 33.691406 -10.765625 36.65625 -12.007812 38.875 -14.5 C 41.09375 -16.988281 42.203125 -20.453125 42.203125 -24.890625 L 42.203125 -31.375 L 41.109375 -31.609375 C 40.140625 -30.835938 38.875 -30.191406 37.3125 -29.671875 C 35.75 -29.148438 33.503906 -28.640625 30.578125 -28.140625 C 27.097656 -27.554688 24.59375 -26.5625 23.0625 -25.15625 C 21.539062 -23.75 20.78125 -21.753906 20.78125 -19.171875 C 20.78125 -16.421875 21.59375 -14.332031 23.21875 -12.90625 C 24.84375 -11.476562 27.097656 -10.765625 29.984375 -10.765625 Z M 29.984375 -10.765625 "/></g></g></g><g fill="#007cc3" fill-opacity="1"><g transform="translate(555.649305, 160.189579)"><g><path d="M 9.203125 0 L 9.203125 -63.859375 L 24.78125 -63.859375 L 24.78125 -54.375 L 26 -54.140625 C 27.539062 -57.691406 29.566406 -60.296875 32.078125 -61.953125 C 34.585938 -63.609375 37.632812 -64.4375 41.21875 -64.4375 C 44.851562 -64.4375 47.613281 -63.820312 49.5 -62.59375 L 46.78125 -48.75 L 45.5625 -48.515625 C 44.519531 -48.941406 43.515625 -49.25 42.546875 -49.4375 C 41.585938 -49.632812 40.414062 -49.734375 39.03125 -49.734375 C 34.550781 -49.734375 31.132812 -48.160156 28.78125 -45.015625 C 26.425781 -41.867188 25.25 -36.820312 25.25 -29.875 L 25.25 0 Z M 9.203125 0 "/></g></g></g><g fill="#007cc3" fill-opacity="1"><g transform="translate(604.050026, 160.189579)"><g><path d="M 63.109375 -28.3125 L 22.0625 -28.3125 C 22.519531 -22.75 24.097656 -18.703125 26.796875 -16.171875 C 29.503906 -13.648438 33.191406 -12.390625 37.859375 -12.390625 C 41.523438 -12.390625 44.5 -13.070312 46.78125 -14.4375 C 49.0625 -15.8125 50.894531 -17.890625 52.28125 -20.671875 L 53.5 -20.671875 L 64.15625 -13.84375 C 62.070312 -9.363281 58.925781 -5.734375 54.71875 -2.953125 C 50.507812 -0.171875 44.890625 1.21875 37.859375 1.21875 C 31.265625 1.21875 25.5625 -0.0351562 20.75 -2.546875 C 15.945312 -5.054688 12.242188 -8.789062 9.640625 -13.75 C 7.035156 -18.707031 5.734375 -24.757812 5.734375 -31.90625 C 5.734375 -39.15625 7.101562 -45.269531 9.84375 -50.25 C 12.582031 -55.226562 16.285156 -58.941406 20.953125 -61.390625 C 25.628906 -63.847656 30.878906 -65.078125 36.703125 -65.078125 C 45.734375 -65.078125 52.648438 -62.679688 57.453125 -57.890625 C 62.265625 -53.109375 64.671875 -46.085938 64.671875 -36.828125 C 64.671875 -33.460938 64.554688 -30.851562 64.328125 -29 Z M 49.328125 -38.671875 C 49.171875 -43.535156 48.039062 -47.078125 45.9375 -49.296875 C 43.832031 -51.515625 40.753906 -52.625 36.703125 -52.625 C 28.597656 -52.625 23.832031 -47.972656 22.40625 -38.671875 Z M 49.328125 -38.671875 "/></g></g></g><path fill="#007cc3" d="M 355.125 71.441406 L 359.613281 71.441406 L 359.613281 72.1875 L 355.125 72.1875 M 360.363281 71.441406 L 364.851562 71.441406 L 364.851562 72.1875 L 360.363281 72.1875 M 365.597656 71.441406 L 370.085938 71.441406 L 370.085938 72.1875 L 365.597656 72.1875 M 370.835938 71.441406 L 375.324219 71.441406 L 375.324219 72.1875 L 370.835938 72.1875 M 376.070312 71.441406 L 380.558594 71.441406 L 380.558594 72.1875 L 376.070312 72.1875 M 381.308594 71.441406 L 385.796875 71.441406 L 385.796875 72.1875 L 381.308594 72.1875 M 386.542969 71.441406 L 391.03125 71.441406 L 391.03125 72.1875 L 386.542969 72.1875 M 391.777344 71.441406 L 396.265625 71.441406 L 396.265625 72.1875 L 391.777344 72.1875 M 397.015625 71.441406 L 401.503906 71.441406 L 401.503906 72.1875 L 397.015625 72.1875 M 402.25 71.441406 L 406.738281 71.441406 L 406.738281 72.1875 L 402.25 72.1875 M 407.488281 71.441406 L 411.976562 71.441406 L 411.976562 72.1875 L 407.488281 72.1875 M 412.722656 71.441406 L 417.210938 71.441406 L 417.210938 72.1875 L 412.722656 72.1875 M 417.960938 71.441406 L 422.449219 71.441406 L 422.449219 72.1875 L 417.960938 72.1875 M 423.195312 71.441406 L 427.683594 71.441406 L 427.683594 72.1875 L 423.195312 72.1875 M 428.429688 71.441406 L 432.917969 71.441406 L 432.917969 72.1875 L 428.429688 72.1875 M 433.667969 71.441406 L 438.15625 71.441406 L 438.15625 72.1875 L 433.667969 72.1875 M 438.902344 71.441406 L 443.390625 71.441406 L 443.390625 72.1875 L 438.902344 72.1875 M 444.140625 71.441406 L 448.628906 71.441406 L 448.628906 72.1875 L 444.140625 72.1875 M 449.375 71.441406 L 453.863281 71.441406 L 453.863281 72.1875 L 449.375 72.1875 M 454.613281 71.441406 L 459.097656 71.441406 L 459.097656 72.1875 L 454.613281 72.1875 M 459.847656 71.441406 L 464.335938 71.441406 L 464.335938 72.1875 L 459.847656 72.1875 M 465.082031 71.441406 L 469.570312 71.441406 L 469.570312 72.1875 L 465.082031 72.1875 M 470.320312 71.441406 L 474.808594 71.441406 L 474.808594 72.1875 L 470.320312 72.1875 M 475.554688 71.441406 L 480.042969 71.441406 L 480.042969 72.1875 L 475.554688 72.1875 M 480.792969 71.441406 L 485.28125 71.441406 L 485.28125 72.1875 L 480.792969 72.1875 M 486.027344 71.441406 L 490.515625 71.441406 L 490.515625 72.1875 L 486.027344 72.1875 M 491.265625 71.441406 L 495.75 71.441406 L 495.75 72.1875 L 491.265625 72.1875 M 496.5 71.441406 L 500.988281 71.441406 L 500.988281 72.1875 L 496.5 72.1875 M 501.734375 71.441406 L 506.222656 71.441406 L 506.222656 72.1875 L 501.734375 72.1875 M 506.972656 71.441406 L 511.460938 71.441406 L 511.460938 72.1875 L 506.972656 72.1875 M 512.207031 71.441406 L 516.695312 71.441406 L 516.695312 72.1875 L 512.207031 72.1875 M 517.445312 71.441406 L 521.933594 71.441406 L 521.933594 72.1875 L 517.445312 72.1875 M 522.679688 71.441406 L 527.167969 71.441406 L 527.167969 72.1875 L 522.679688 72.1875 M 527.917969 71.441406 L 532.402344 71.441406 L 532.402344 72.1875 L 527.917969 72.1875 M 533.152344 71.441406 L 537.640625 71.441406 L 537.640625 72.1875 L 533.152344 72.1875 M 538.386719 71.441406 L 542.875 71.441406 L 542.875 72.1875 L 538.386719 72.1875 M 543.625 71.441406 L 548.113281 71.441406 L 548.113281 72.1875 L 543.625 72.1875 M 548.859375 71.441406 L 553.347656 71.441406 L 553.347656 72.1875 L 548.859375 72.1875 M 554.097656 71.441406 L 558.585938 71.441406 L 558.585938 72.1875 L 554.097656 72.1875 M 559.332031 71.441406 L 563.820312 71.441406 L 563.820312 72.1875 L 559.332031 72.1875 M 564.566406 71.441406 L 569.054688 71.441406 L 569.054688 72.1875 L 564.566406 72.1875 M 569.804688 71.441406 L 574.292969 71.441406 L 574.292969 72.1875 L 569.804688 72.1875 M 575.039062 71.441406 L 579.527344 71.441406 L 579.527344 72.1875 L 575.039062 72.1875 M 580.277344 71.441406 L 584.765625 71.441406 L 584.765625 72.1875 L 580.277344 72.1875 M 585.511719 71.441406 L 590 71.441406 L 590 72.1875 L 585.511719 72.1875 M 590.75 71.441406 L 595.238281 71.441406 L 595.238281 72.1875 L 590.75 72.1875 M 595.984375 71.441406 L 600.472656 71.441406 L 600.472656 72.1875 L 595.984375 72.1875 M 601.21875 71.441406 L 605.707031 71.441406 L 605.707031 72.1875 L 601.21875 72.1875 M 606.457031 71.441406 L 610.945312 71.441406 L 610.945312 72.1875 L 606.457031 72.1875 M 611.691406 71.441406 L 616.179688 71.441406 L 616.179688 72.1875 L 611.691406 72.1875 M 616.929688 71.441406 L 621.417969 71.441406 L 621.417969 72.1875 L 616.929688 72.1875 M 622.164062 71.441406 L 626.652344 71.441406 L 626.652344 72.1875 L 622.164062 72.1875 M 627.402344 71.441406 L 631.890625 71.441406 L 631.890625 72.1875 L 627.402344 72.1875 M 632.636719 71.441406 L 637.125 71.441406 L 637.125 72.1875 L 632.636719 72.1875 M 637.871094 71.441406 L 642.359375 71.441406 L 642.359375 72.1875 L 637.871094 72.1875 M 643.109375 71.441406 L 647.597656 71.441406 L 647.597656 72.1875 L 643.109375 72.1875 M 648.34375 71.441406 L 652.832031 71.441406 L 652.832031 72.1875 L 648.34375 72.1875 M 653.582031 71.441406 L 658.070312 71.441406 L 658.070312 72.1875 L 653.582031 72.1875 M 658.816406 71.441406 L 663.304688 71.441406 L 663.304688 72.1875 L 658.816406 72.1875 M 664.054688 71.441406 L 668.542969 71.441406 L 668.542969 72.1875 L 664.054688 72.1875 " fill-opacity="1" fill-rule="nonzero"/><g transform="matrix(1, 0, 0, 1, 218, 32)"><g clip-path="url(#9da235a7b8)"><g fill="#000000" fill-opacity="1"><g transform="translate(1.087338, 34.896932)"><g><path d="M 40.34375 -24.75 L 32.25 0 L 26.09375 0 L 20.65625 -16.765625 L 15.03125 0 L 8.90625 0 L 0.78125 -24.75 L 6.71875 -24.75 L 12.3125 -7.359375 L 18.140625 -24.75 L 23.4375 -24.75 L 29.09375 -7.21875 L 34.859375 -24.75 Z M 40.34375 -24.75 "/></g></g></g><g fill="#000000" fill-opacity="1"><g transform="translate(40.152565, 34.896932)"><g><path d="M 21.1875 -9.4375 C 21.1875 -9.363281 21.148438 -8.867188 21.078125 -7.953125 L 6.6875 -7.953125 C 6.945312 -6.773438 7.554688 -5.84375 8.515625 -5.15625 C 9.484375 -4.476562 10.6875 -4.140625 12.125 -4.140625 C 13.113281 -4.140625 13.988281 -4.285156 14.75 -4.578125 C 15.519531 -4.867188 16.238281 -5.332031 16.90625 -5.96875 L 19.84375 -2.796875 C 18.050781 -0.742188 15.429688 0.28125 11.984375 0.28125 C 9.835938 0.28125 7.9375 -0.132812 6.28125 -0.96875 C 4.632812 -1.8125 3.363281 -2.972656 2.46875 -4.453125 C 1.570312 -5.941406 1.125 -7.628906 1.125 -9.515625 C 1.125 -11.378906 1.566406 -13.054688 2.453125 -14.546875 C 3.335938 -16.046875 4.550781 -17.210938 6.09375 -18.046875 C 7.644531 -18.890625 9.375 -19.3125 11.28125 -19.3125 C 13.144531 -19.3125 14.828125 -18.910156 16.328125 -18.109375 C 17.835938 -17.304688 19.023438 -16.15625 19.890625 -14.65625 C 20.753906 -13.15625 21.1875 -11.414062 21.1875 -9.4375 Z M 11.3125 -15.140625 C 10.0625 -15.140625 9.007812 -14.785156 8.15625 -14.078125 C 7.3125 -13.367188 6.796875 -12.398438 6.609375 -11.171875 L 15.984375 -11.171875 C 15.796875 -12.378906 15.273438 -13.34375 14.421875 -14.0625 C 13.578125 -14.78125 12.539062 -15.140625 11.3125 -15.140625 Z M 11.3125 -15.140625 "/></g></g></g><g fill="#000000" fill-opacity="1"><g transform="translate(62.35445, 34.896932)"><g><path d="M 13.796875 -19.3125 C 15.554688 -19.3125 17.160156 -18.898438 18.609375 -18.078125 C 20.066406 -17.265625 21.207031 -16.125 22.03125 -14.65625 C 22.851562 -13.1875 23.265625 -11.472656 23.265625 -9.515625 C 23.265625 -7.554688 22.851562 -5.835938 22.03125 -4.359375 C 21.207031 -2.890625 20.066406 -1.75 18.609375 -0.9375 C 17.160156 -0.125 15.554688 0.28125 13.796875 0.28125 C 11.171875 0.28125 9.175781 -0.539062 7.8125 -2.1875 L 7.8125 0 L 2.546875 0 L 2.546875 -26.234375 L 8.0625 -26.234375 L 8.0625 -17.015625 C 9.445312 -18.546875 11.359375 -19.3125 13.796875 -19.3125 Z M 12.828125 -4.25 C 14.242188 -4.25 15.40625 -4.722656 16.3125 -5.671875 C 17.226562 -6.628906 17.6875 -7.910156 17.6875 -9.515625 C 17.6875 -11.117188 17.226562 -12.394531 16.3125 -13.34375 C 15.40625 -14.300781 14.242188 -14.78125 12.828125 -14.78125 C 11.421875 -14.78125 10.257812 -14.300781 9.34375 -13.34375 C 8.4375 -12.394531 7.984375 -11.117188 7.984375 -9.515625 C 7.984375 -7.910156 8.4375 -6.628906 9.34375 -5.671875 C 10.257812 -4.722656 11.421875 -4.25 12.828125 -4.25 Z M 12.828125 -4.25 "/></g></g></g><g fill="#000000" fill-opacity="1"><g transform="translate(86.642179, 34.896932)"><g/></g></g><g fill="#000000" fill-opacity="1"><g transform="translate(96.541086, 34.896932)"><g><path d="M 25.453125 0 L 25.421875 -14.84375 L 18.140625 -2.609375 L 15.5625 -2.609375 L 8.3125 -14.53125 L 8.3125 0 L 2.9375 0 L 2.9375 -24.75 L 7.671875 -24.75 L 16.9375 -9.375 L 26.0625 -24.75 L 30.765625 -24.75 L 30.828125 0 Z M 25.453125 0 "/></g></g></g><g fill="#000000" fill-opacity="1"><g transform="translate(130.197447, 34.896932)"><g><path d="M 11.59375 0.28125 C 9.59375 0.28125 7.796875 -0.132812 6.203125 -0.96875 C 4.609375 -1.8125 3.363281 -2.972656 2.46875 -4.453125 C 1.570312 -5.941406 1.125 -7.628906 1.125 -9.515625 C 1.125 -11.398438 1.570312 -13.082031 2.46875 -14.5625 C 3.363281 -16.050781 4.609375 -17.210938 6.203125 -18.046875 C 7.796875 -18.890625 9.59375 -19.3125 11.59375 -19.3125 C 13.601562 -19.3125 15.394531 -18.890625 16.96875 -18.046875 C 18.550781 -17.210938 19.789062 -16.050781 20.6875 -14.5625 C 21.582031 -13.082031 22.03125 -11.398438 22.03125 -9.515625 C 22.03125 -7.628906 21.582031 -5.941406 20.6875 -4.453125 C 19.789062 -2.972656 18.550781 -1.8125 16.96875 -0.96875 C 15.394531 -0.132812 13.601562 0.28125 11.59375 0.28125 Z M 11.59375 -4.25 C 13.007812 -4.25 14.171875 -4.722656 15.078125 -5.671875 C 15.984375 -6.628906 16.4375 -7.910156 16.4375 -9.515625 C 16.4375 -11.117188 15.984375 -12.394531 15.078125 -13.34375 C 14.171875 -14.300781 13.007812 -14.78125 11.59375 -14.78125 C 10.175781 -14.78125 9.007812 -14.300781 8.09375 -13.34375 C 7.175781 -12.394531 6.71875 -11.117188 6.71875 -9.515625 C 6.71875 -7.910156 7.175781 -6.628906 8.09375 -5.671875 C 9.007812 -4.722656 10.175781 -4.25 11.59375 -4.25 Z M 11.59375 -4.25 "/></g></g></g><g fill="#000000" fill-opacity="1"><g transform="translate(153.247799, 34.896932)"><g><path d="M 13.796875 -19.3125 C 15.554688 -19.3125 17.160156 -18.898438 18.609375 -18.078125 C 20.066406 -17.265625 21.207031 -16.125 22.03125 -14.65625 C 22.851562 -13.1875 23.265625 -11.472656 23.265625 -9.515625 C 23.265625 -7.554688 22.851562 -5.835938 22.03125 -4.359375 C 21.207031 -2.890625 20.066406 -1.75 18.609375 -0.9375 C 17.160156 -0.125 15.554688 0.28125 13.796875 0.28125 C 11.171875 0.28125 9.175781 -0.539062 7.8125 -2.1875 L 7.8125 0 L 2.546875 0 L 2.546875 -26.234375 L 8.0625 -26.234375 L 8.0625 -17.015625 C 9.445312 -18.546875 11.359375 -19.3125 13.796875 -19.3125 Z M 12.828125 -4.25 C 14.242188 -4.25 15.40625 -4.722656 16.3125 -5.671875 C 17.226562 -6.628906 17.6875 -7.910156 17.6875 -9.515625 C 17.6875 -11.117188 17.226562 -12.394531 16.3125 -13.34375 C 15.40625 -14.300781 14.242188 -14.78125 12.828125 -14.78125 C 11.421875 -14.78125 10.257812 -14.300781 9.34375 -13.34375 C 8.4375 -12.394531 7.984375 -11.117188 7.984375 -9.515625 C 7.984375 -7.910156 8.4375 -6.628906 9.34375 -5.671875 C 10.257812 -4.722656 11.421875 -4.25 12.828125 -4.25 Z M 12.828125 -4.25 "/></g></g></g><g fill="#000000" fill-opacity="1"><g transform="translate(177.535527, 34.896932)"><g><path d="M 2.546875 -19.015625 L 8.0625 -19.015625 L 8.0625 0 L 2.546875 0 Z M 5.296875 -21.671875 C 4.285156 -21.671875 3.460938 -21.960938 2.828125 -22.546875 C 2.191406 -23.140625 1.875 -23.875 1.875 -24.75 C 1.875 -25.625 2.191406 -26.351562 2.828125 -26.9375 C 3.460938 -27.53125 4.285156 -27.828125 5.296875 -27.828125 C 6.304688 -27.828125 7.128906 -27.539062 7.765625 -26.96875 C 8.410156 -26.40625 8.734375 -25.703125 8.734375 -24.859375 C 8.734375 -23.941406 8.410156 -23.179688 7.765625 -22.578125 C 7.128906 -21.972656 6.304688 -21.671875 5.296875 -21.671875 Z M 5.296875 -21.671875 "/></g></g></g><g fill="#000000" fill-opacity="1"><g transform="translate(188.070798, 34.896932)"><g><path d="M 2.546875 -26.234375 L 8.0625 -26.234375 L 8.0625 0 L 2.546875 0 Z M 2.546875 -26.234375 "/></g></g></g><g fill="#000000" fill-opacity="1"><g transform="translate(198.606069, 34.896932)"><g><path d="M 21.1875 -9.4375 C 21.1875 -9.363281 21.148438 -8.867188 21.078125 -7.953125 L 6.6875 -7.953125 C 6.945312 -6.773438 7.554688 -5.84375 8.515625 -5.15625 C 9.484375 -4.476562 10.6875 -4.140625 12.125 -4.140625 C 13.113281 -4.140625 13.988281 -4.285156 14.75 -4.578125 C 15.519531 -4.867188 16.238281 -5.332031 16.90625 -5.96875 L 19.84375 -2.796875 C 18.050781 -0.742188 15.429688 0.28125 11.984375 0.28125 C 9.835938 0.28125 7.9375 -0.132812 6.28125 -0.96875 C 4.632812 -1.8125 3.363281 -2.972656 2.46875 -4.453125 C 1.570312 -5.941406 1.125 -7.628906 1.125 -9.515625 C 1.125 -11.378906 1.566406 -13.054688 2.453125 -14.546875 C 3.335938 -16.046875 4.550781 -17.210938 6.09375 -18.046875 C 7.644531 -18.890625 9.375 -19.3125 11.28125 -19.3125 C 13.144531 -19.3125 14.828125 -18.910156 16.328125 -18.109375 C 17.835938 -17.304688 19.023438 -16.15625 19.890625 -14.65625 C 20.753906 -13.15625 21.1875 -11.414062 21.1875 -9.4375 Z M 11.3125 -15.140625 C 10.0625 -15.140625 9.007812 -14.785156 8.15625 -14.078125 C 7.3125 -13.367188 6.796875 -12.398438 6.609375 -11.171875 L 15.984375 -11.171875 C 15.796875 -12.378906 15.273438 -13.34375 14.421875 -14.0625 C 13.578125 -14.78125 12.539062 -15.140625 11.3125 -15.140625 Z M 11.3125 -15.140625 "/></g></g></g><g fill="#000000" fill-opacity="1"><g transform="translate(220.807955, 34.896932)"><g/></g></g><g fill="#000000" fill-opacity="1"><g transform="translate(230.706862, 34.896932)"><g><path d="M 14.78125 0.421875 C 12.257812 0.421875 9.976562 -0.125 7.9375 -1.21875 C 5.894531 -2.3125 4.289062 -3.832031 3.125 -5.78125 C 1.957031 -7.726562 1.375 -9.925781 1.375 -12.375 C 1.375 -14.820312 1.957031 -17.019531 3.125 -18.96875 C 4.289062 -20.914062 5.894531 -22.4375 7.9375 -23.53125 C 9.976562 -24.625 12.269531 -25.171875 14.8125 -25.171875 C 16.957031 -25.171875 18.894531 -24.789062 20.625 -24.03125 C 22.363281 -23.28125 23.820312 -22.203125 25 -20.796875 L 21.328125 -17.390625 C 19.648438 -19.328125 17.570312 -20.296875 15.09375 -20.296875 C 13.5625 -20.296875 12.191406 -19.957031 10.984375 -19.28125 C 9.785156 -18.613281 8.847656 -17.675781 8.171875 -16.46875 C 7.503906 -15.269531 7.171875 -13.90625 7.171875 -12.375 C 7.171875 -10.84375 7.503906 -9.472656 8.171875 -8.265625 C 8.847656 -7.066406 9.785156 -6.128906 10.984375 -5.453125 C 12.191406 -4.785156 13.5625 -4.453125 15.09375 -4.453125 C 17.570312 -4.453125 19.648438 -5.429688 21.328125 -7.390625 L 25 -4 C 23.820312 -2.5625 22.359375 -1.460938 20.609375 -0.703125 C 18.867188 0.0429688 16.925781 0.421875 14.78125 0.421875 Z M 14.78125 0.421875 "/></g></g></g><g fill="#000000" fill-opacity="1"><g transform="translate(256.51479, 34.896932)"><g><path d="M 2.546875 -26.234375 L 8.0625 -26.234375 L 8.0625 0 L 2.546875 0 Z M 2.546875 -26.234375 "/></g></g></g><g fill="#000000" fill-opacity="1"><g transform="translate(267.050061, 34.896932)"><g><path d="M 11.59375 0.28125 C 9.59375 0.28125 7.796875 -0.132812 6.203125 -0.96875 C 4.609375 -1.8125 3.363281 -2.972656 2.46875 -4.453125 C 1.570312 -5.941406 1.125 -7.628906 1.125 -9.515625 C 1.125 -11.398438 1.570312 -13.082031 2.46875 -14.5625 C 3.363281 -16.050781 4.609375 -17.210938 6.203125 -18.046875 C 7.796875 -18.890625 9.59375 -19.3125 11.59375 -19.3125 C 13.601562 -19.3125 15.394531 -18.890625 16.96875 -18.046875 C 18.550781 -17.210938 19.789062 -16.050781 20.6875 -14.5625 C 21.582031 -13.082031 22.03125 -11.398438 22.03125 -9.515625 C 22.03125 -7.628906 21.582031 -5.941406 20.6875 -4.453125 C 19.789062 -2.972656 18.550781 -1.8125 16.96875 -0.96875 C 15.394531 -0.132812 13.601562 0.28125 11.59375 0.28125 Z M 11.59375 -4.25 C 13.007812 -4.25 14.171875 -4.722656 15.078125 -5.671875 C 15.984375 -6.628906 16.4375 -7.910156 16.4375 -9.515625 C 16.4375 -11.117188 15.984375 -12.394531 15.078125 -13.34375 C 14.171875 -14.300781 13.007812 -14.78125 11.59375 -14.78125 C 10.175781 -14.78125 9.007812 -14.300781 8.09375 -13.34375 C 7.175781 -12.394531 6.71875 -11.117188 6.71875 -9.515625 C 6.71875 -7.910156 7.175781 -6.628906 8.09375 -5.671875 C 9.007812 -4.722656 10.175781 -4.25 11.59375 -4.25 Z M 11.59375 -4.25 "/></g></g></g><g fill="#000000" fill-opacity="1"><g transform="translate(290.100413, 34.896932)"><g><path d="M 21.703125 -19.015625 L 21.703125 0 L 16.484375 0 L 16.484375 -2.265625 C 15.742188 -1.441406 14.867188 -0.8125 13.859375 -0.375 C 12.847656 0.0585938 11.753906 0.28125 10.578125 0.28125 C 8.078125 0.28125 6.09375 -0.4375 4.625 -1.875 C 3.164062 -3.3125 2.4375 -5.445312 2.4375 -8.28125 L 2.4375 -19.015625 L 7.953125 -19.015625 L 7.953125 -9.09375 C 7.953125 -6.019531 9.238281 -4.484375 11.8125 -4.484375 C 13.132812 -4.484375 14.191406 -4.914062 14.984375 -5.78125 C 15.785156 -6.644531 16.1875 -7.925781 16.1875 -9.625 L 16.1875 -19.015625 Z M 21.703125 -19.015625 "/></g></g></g><g fill="#000000" fill-opacity="1"><g transform="translate(314.282055, 34.896932)"><g><path d="M 21.921875 -26.234375 L 21.921875 0 L 16.65625 0 L 16.65625 -2.1875 C 15.289062 -0.539062 13.3125 0.28125 10.71875 0.28125 C 8.925781 0.28125 7.300781 -0.117188 5.84375 -0.921875 C 4.394531 -1.722656 3.257812 -2.863281 2.4375 -4.34375 C 1.613281 -5.832031 1.203125 -7.554688 1.203125 -9.515625 C 1.203125 -11.472656 1.613281 -13.191406 2.4375 -14.671875 C 3.257812 -16.160156 4.394531 -17.304688 5.84375 -18.109375 C 7.300781 -18.910156 8.925781 -19.3125 10.71875 -19.3125 C 13.144531 -19.3125 15.039062 -18.546875 16.40625 -17.015625 L 16.40625 -26.234375 Z M 11.671875 -4.25 C 13.054688 -4.25 14.207031 -4.722656 15.125 -5.671875 C 16.050781 -6.628906 16.515625 -7.910156 16.515625 -9.515625 C 16.515625 -11.117188 16.050781 -12.394531 15.125 -13.34375 C 14.207031 -14.300781 13.054688 -14.78125 11.671875 -14.78125 C 10.253906 -14.78125 9.082031 -14.300781 8.15625 -13.34375 C 7.238281 -12.394531 6.78125 -11.117188 6.78125 -9.515625 C 6.78125 -7.910156 7.238281 -6.628906 8.15625 -5.671875 C 9.082031 -4.722656 10.253906 -4.25 11.671875 -4.25 Z M 11.671875 -4.25 "/></g></g></g><g fill="#000000" fill-opacity="1"><g transform="translate(338.640504, 34.896932)"><g/></g></g><g fill="#000000" fill-opacity="1"><g transform="translate(348.539411, 34.896932)"><g><path d="M 19.234375 -5.296875 L 7.75 -5.296875 L 5.546875 0 L -0.3125 0 L 10.71875 -24.75 L 16.375 -24.75 L 27.4375 0 L 21.421875 0 Z M 17.4375 -9.65625 L 13.5 -19.125 L 9.578125 -9.65625 Z M 17.4375 -9.65625 "/></g></g></g><g fill="#000000" fill-opacity="1"><g transform="translate(375.514015, 34.896932)"><g><path d="M 2.9375 -24.75 L 8.65625 -24.75 L 8.65625 0 L 2.9375 0 Z M 2.9375 -24.75 "/></g></g></g><g fill="#000000" fill-opacity="1"><g transform="translate(387.003787, 34.896932)"><g/></g></g><g fill="#000000" fill-opacity="1"><g transform="translate(396.90273, 34.896932)"><g><path d="M 2.9375 -24.75 L 8.65625 -24.75 L 8.65625 0 L 2.9375 0 Z M 2.9375 -24.75 "/></g></g></g><g fill="#000000" fill-opacity="1"><g transform="translate(408.392502, 34.896932)"><g><path d="M 11.59375 0.28125 C 9.59375 0.28125 7.796875 -0.132812 6.203125 -0.96875 C 4.609375 -1.8125 3.363281 -2.972656 2.46875 -4.453125 C 1.570312 -5.941406 1.125 -7.628906 1.125 -9.515625 C 1.125 -11.398438 1.570312 -13.082031 2.46875 -14.5625 C 3.363281 -16.050781 4.609375 -17.210938 6.203125 -18.046875 C 7.796875 -18.890625 9.59375 -19.3125 11.59375 -19.3125 C 13.601562 -19.3125 15.394531 -18.890625 16.96875 -18.046875 C 18.550781 -17.210938 19.789062 -16.050781 20.6875 -14.5625 C 21.582031 -13.082031 22.03125 -11.398438 22.03125 -9.515625 C 22.03125 -7.628906 21.582031 -5.941406 20.6875 -4.453125 C 19.789062 -2.972656 18.550781 -1.8125 16.96875 -0.96875 C 15.394531 -0.132812 13.601562 0.28125 11.59375 0.28125 Z M 11.59375 -4.25 C 13.007812 -4.25 14.171875 -4.722656 15.078125 -5.671875 C 15.984375 -6.628906 16.4375 -7.910156 16.4375 -9.515625 C 16.4375 -11.117188 15.984375 -12.394531 15.078125 -13.34375 C 14.171875 -14.300781 13.007812 -14.78125 11.59375 -14.78125 C 10.175781 -14.78125 9.007812 -14.300781 8.09375 -13.34375 C 7.175781 -12.394531 6.71875 -11.117188 6.71875 -9.515625 C 6.71875 -7.910156 7.175781 -6.628906 8.09375 -5.671875 C 9.007812 -4.722656 10.175781 -4.25 11.59375 -4.25 Z M 11.59375 -4.25 "/></g></g></g><g fill="#000000" fill-opacity="1"><g transform="translate(429.109323, 34.896932)"><g><path d="M 8.0625 -20.078125 L 0.140625 -20.078125 L 0.140625 -24.75 L 21.703125 -24.75 L 21.703125 -20.078125 L 13.796875 -20.078125 L 13.796875 0 L 8.0625 0 Z M 8.0625 -20.078125 "/></g></g></g></g></g><g fill="#000000" fill-opacity="1"><g transform="translate(371.414818, 102.102719)"><g/></g></g><path fill="#007cc3" d="M 216.746094 72.9375 L 221.234375 72.9375 L 221.234375 73.683594 L 216.746094 73.683594 M 221.980469 72.9375 L 226.46875 72.9375 L 226.46875 73.683594 L 221.980469 73.683594 M 227.21875 72.9375 L 231.707031 72.9375 L 231.707031 73.683594 L 227.21875 73.683594 M 232.453125 72.9375 L 236.941406 72.9375 L 236.941406 73.683594 L 232.453125 73.683594 M 237.691406 72.9375 L 242.179688 72.9375 L 242.179688 73.683594 L 237.691406 73.683594 M 242.925781 72.9375 L 247.414062 72.9375 L 247.414062 73.683594 L 242.925781 73.683594 M 248.160156 72.9375 L 252.648438 72.9375 L 252.648438 73.683594 L 248.160156 73.683594 M 253.398438 72.9375 L 257.886719 72.9375 L 257.886719 73.683594 L 253.398438 73.683594 M 258.632812 72.9375 L 263.121094 72.9375 L 263.121094 73.683594 L 258.632812 73.683594 M 263.871094 72.9375 L 268.359375 72.9375 L 268.359375 73.683594 L 263.871094 73.683594 M 269.105469 72.9375 L 273.59375 72.9375 L 273.59375 73.683594 L 269.105469 73.683594 M 274.34375 72.9375 L 278.832031 72.9375 L 278.832031 73.683594 L 274.34375 73.683594 M 279.578125 72.9375 L 284.066406 72.9375 L 284.066406 73.683594 L 279.578125 73.683594 M 284.8125 72.9375 L 289.300781 72.9375 L 289.300781 73.683594 L 284.8125 73.683594 M 290.050781 72.9375 L 294.539062 72.9375 L 294.539062 73.683594 L 290.050781 73.683594 M 295.285156 72.9375 L 299.773438 72.9375 L 299.773438 73.683594 L 295.285156 73.683594 M 300.523438 72.9375 L 305.011719 72.9375 L 305.011719 73.683594 L 300.523438 73.683594 M 305.757812 72.9375 L 310.222656 72.9375 L 310.222656 73.683594 L 305.757812 73.683594 " fill-opacity="1" fill-rule="nonzero"/><g clip-path="url(#6b7ad57423)"><path fill="#007cc3" d="M 444.027344 52.554688 C 442.605469 52.554688 441.453125 53.707031 441.453125 55.128906 C 441.453125 56.554688 442.605469 57.707031 444.027344 57.707031 C 445.453125 57.707031 446.605469 56.554688 446.605469 55.128906 C 446.605469 53.707031 445.453125 52.554688 444.027344 52.554688 Z M 444.027344 52.554688 " fill-opacity="1" fill-rule="nonzero"/></g><g clip-path="url(#78831e0c85)"><path fill="#007cc3" d="M 309.964844 52.554688 C 308.539062 52.554688 307.386719 53.707031 307.386719 55.128906 C 307.386719 56.554688 308.539062 57.707031 309.964844 57.707031 C 311.386719 57.707031 312.542969 56.554688 312.542969 55.128906 C 312.542969 53.707031 311.386719 52.554688 309.964844 52.554688 Z M 309.964844 52.554688 " fill-opacity="1" fill-rule="nonzero"/></g><g clip-path="url(#b35b92ff1b)"><path fill="#007cc3" d="M 562.800781 52.554688 C 561.375 52.554688 560.222656 53.707031 560.222656 55.128906 C 560.222656 56.554688 561.375 57.707031 562.800781 57.707031 C 564.222656 57.707031 565.378906 56.554688 565.378906 55.128906 C 565.378906 53.707031 564.222656 52.554688 562.800781 52.554688 Z M 562.800781 52.554688 " fill-opacity="1" fill-rule="nonzero"/></g><g clip-path="url(#28734127a3)"><path fill="#007cc3" d="M 610.324219 52.554688 C 608.898438 52.554688 607.746094 53.707031 607.746094 55.128906 C 607.746094 56.554688 608.898438 57.707031 610.324219 57.707031 C 611.746094 57.707031 612.902344 56.554688 612.902344 55.128906 C 612.902344 53.707031 611.746094 52.554688 610.324219 52.554688 Z M 610.324219 52.554688 " fill-opacity="1" fill-rule="nonzero"/></g></svg>